<svg xmlns="http://www.w3.org/2000/svg" viewBox="0 0 333.13 248.99"><defs><style>.cls-1{fill:#e86060;}.cls-2{fill:#a24343;}.cls-3{fill:#fff;}</style></defs><g id="Capa_2" data-name="Capa 2"><g id="Capa_1-2" data-name="Capa 1"><path class="cls-1" d="M333.13,161.8a87.18,87.18,0,0,1-151.82,58.51C73.57,254.21,71.52,154,66.64,127.73c-4.93-26.55-23.32-31.66-23.32-31.66l6.81-4.25c-13.27-15.32-32,5.28-32,5.28,0-1.54,4.43-13.62,4.43-13.62C11.15,87.22,6.9,108.16,6.9,108.16c-11.07-25.53,3.4-47.83,3.4-47.83C7.92,60.84,0,67.82,0,67.82.94,24.93,39.62,8.46,39.62,8.46A9.73,9.73,0,0,0,33,7.38C73.13-9.28,117,3,141.54,37s3.74,81.7,5.78,108.94c1.49,19.73,8.86,28.2,12.81,31.38a87.47,87.47,0,0,1,10.64-59.73V56.51a2.62,2.62,0,0,1,4-2.25L217.11,79.5a87.43,87.43,0,0,1,57.66,0l42.38-25.24a2.62,2.62,0,0,1,4,2.25V117.6A86.76,86.76,0,0,1,333.13,161.8Z"/><path class="cls-2" d="M333.13,161.79A87.2,87.2,0,0,1,170.42,205.4l151-87.21A86.79,86.79,0,0,1,333.13,161.79Z"/><path class="cls-3" d="M284.06,179.3c0,7-6.47,12.77-14.46,12.77s-14.47-5.72-14.47-12.77,6.48-12.76,14.47-12.76a15.58,15.58,0,0,1,9,2.76l-.8-31-41.75,11,.67,41.61,0,2c-.45,6.69-6.75,12-14.44,12-8,0-14.47-5.72-14.47-12.77s6.48-12.77,14.47-12.77a15.56,15.56,0,0,1,9.23,2.94l-1.06-49.74,52.93-13.75.53,58.72A11.11,11.11,0,0,1,284.06,179.3Z"/></g></g></svg>